<svg width="142" height="44" viewBox="0 0 142 44" fill="none" xmlns="http://www.w3.org/2000/svg">
<rect x="0.5" y="0.5" width="141" height="43" rx="11.5" fill="white"/>
<rect x="0.5" y="0.5" width="141" height="43" rx="11.5" stroke="#E0E0E0"/>
<path fill-rule="evenodd" clip-rule="evenodd" d="M31.0023 24.7035C30.5652 25.6635 30.3556 26.0923 29.7927 26.9404C29.0064 28.125 27.8994 29.6002 26.5272 29.6129C25.3081 29.6239 24.995 28.8266 23.3404 28.8359C21.6859 28.8452 21.3403 29.6265 20.1203 29.6155C18.7481 29.6027 17.6992 28.2707 16.913 27.0862C14.7161 23.7731 14.486 19.8856 15.8411 17.8189C16.8044 16.3505 18.3229 15.4905 19.7516 15.4905C21.206 15.4905 22.1205 16.2802 23.3225 16.2802C24.4885 16.2802 25.1995 15.4888 26.8814 15.4888C28.1527 15.4888 29.4992 16.1743 30.4582 17.3597C27.3151 19.067 27.8258 23.5147 31.0023 24.7035Z" fill="black"/>
<path fill-rule="evenodd" clip-rule="evenodd" d="M25.6086 14.1663C26.2194 13.3902 26.6831 12.2929 26.5154 11.1719C25.5179 11.2397 24.3502 11.8684 23.6683 12.6886C23.0498 13.4326 22.5391 14.5366 22.7384 15.6093C23.8274 15.6424 24.9541 14.9984 25.6086 14.1663Z" fill="black"/>
<path fill-rule="evenodd" clip-rule="evenodd" d="M114.926 27.4458H108.773C108.797 28.2718 109.095 28.9964 109.667 29.4719C110.184 29.8991 110.855 30.0938 111.678 30.0938C112.591 30.0938 113.417 29.9404 114.166 29.6478L114.488 31.0556C113.619 31.4344 112.585 31.6161 111.392 31.6161C109.965 31.6161 108.841 31.2007 108.025 30.3676C107.209 29.5345 106.798 28.4146 106.798 27.0115C106.798 25.6297 107.179 24.485 107.937 23.5658C108.737 22.5899 109.813 22.1013 111.166 22.1013C112.499 22.1013 113.503 22.5887 114.185 23.5658C114.727 24.3458 115.001 25.3441 115.001 26.4852C115.001 26.8451 114.975 27.2098 114.926 27.4458ZM106.184 24.0932C106.065 24.0567 105.749 24.0413 105.523 24.0413C104.802 24.0413 104.239 24.3104 103.845 24.8485C103.502 25.3264 103.325 25.9188 103.325 26.6516V31.3399H101.299V25.1813C101.299 24.1345 101.255 23.1976 101.219 22.2535H103.003L103.079 24.1416H103.135C103.35 23.5516 103.689 23.0147 104.16 22.6548C104.615 22.3255 105.127 22.1462 105.659 22.1462C105.847 22.1462 106.064 22.1344 106.183 22.1591V24.0932H106.184ZM98.7711 30.2649C97.9204 31.1901 96.7945 31.6538 95.3921 31.6538C94.0351 31.6538 92.9533 31.209 92.1502 30.3192C91.3472 29.4318 90.9481 28.3049 90.9481 26.9537C90.9481 25.5388 91.3615 24.3776 92.1907 23.4761C93.0212 22.5698 94.1352 22.1249 95.5399 22.1249C96.8993 22.1249 97.9871 22.5651 98.8092 23.4596C99.5919 24.3198 99.9839 25.4385 99.9839 26.8038C99.9827 28.2104 99.5812 29.3598 98.7711 30.2649ZM90.3381 23.9056H88.1935V28.2706C88.1935 29.3976 88.5461 29.9569 89.3444 29.9569C89.7114 29.9569 89.9878 29.931 90.2308 29.8684L90.2773 31.406C89.871 31.5571 89.3349 31.6326 88.6772 31.6326C87.8718 31.6326 87.2117 31.3919 86.7578 30.8986C86.2979 30.4124 86.0501 29.5899 86.0501 28.437V23.9056H84.7395V22.2535H86.0501V20.6345L88.1947 20.0327V22.2535H90.3393V23.9056H90.3381ZM83.1311 30.5233C82.2935 31.2644 81.133 31.6326 79.6449 31.6326C78.2652 31.6326 77.162 31.3683 76.3291 30.8443L76.8057 29.1521C77.7041 29.6761 78.6906 29.9416 79.7629 29.9416C80.5385 29.9416 81.1378 29.7669 81.5691 29.4247C81.9968 29.0813 82.2125 28.6211 82.2125 28.037C82.2125 27.5296 82.0349 27.0977 81.6823 26.7436C81.3248 26.3932 80.741 26.0698 79.9178 25.7666C77.6802 24.9417 76.5591 23.7321 76.5591 22.1403C76.5591 21.1006 76.9499 20.2451 77.7422 19.5819C78.5333 18.9187 79.5806 18.5859 80.8852 18.5859C82.0492 18.5859 83.0179 18.7877 83.7911 19.1866L83.274 20.8422C82.5532 20.4551 81.7323 20.2581 80.8185 20.2581C80.0953 20.2581 79.5293 20.4398 79.1207 20.7832C78.7799 21.1006 78.6084 21.483 78.6084 21.9326C78.6084 22.4305 78.8049 22.8459 79.1957 23.1763C79.5389 23.4761 80.1584 23.7994 81.0544 24.1499C82.1588 24.5853 82.9666 25.1022 83.4873 25.6934C84.0044 26.2822 84.2653 27.0139 84.2653 27.8907C84.2665 28.9704 83.8852 29.8507 83.1311 30.5233ZM71.2846 30.4525C70.5209 31.2514 69.5677 31.6527 68.4335 31.6527C67.2123 31.6527 66.3902 31.2208 65.7945 30.3522V35.2341H63.769V25.3099C63.769 24.3328 63.7309 23.4336 63.682 22.2535H65.4811L65.6003 23.7876H65.636C66.3246 22.7256 67.3588 22.1403 68.7504 22.1403C69.8394 22.1403 70.7473 22.5545 71.4752 23.4088C72.2044 24.2596 72.5678 25.3795 72.5678 26.7708C72.5666 28.3285 72.1401 29.5486 71.2846 30.4525ZM61.1479 30.4525C60.3853 31.2514 59.4346 31.6527 58.3027 31.6527C57.0779 31.6527 56.263 31.2208 55.6672 30.3522V35.2341H53.6418V25.3099C53.6418 24.3328 53.5953 23.4336 53.5429 22.2535H55.3468L55.4599 23.7876H55.4957C56.1831 22.7256 57.2185 22.1403 58.6125 22.1403C59.7003 22.1403 60.6069 22.5545 61.3385 23.4088C62.0641 24.2596 62.4287 25.3795 62.4287 26.7708C62.4298 28.3285 62.0033 29.5486 61.1479 30.4525ZM50.1831 31.3399L48.9881 27.6818H44.8287L43.6885 31.3399H41.5642L45.6806 18.7134H48.2279L52.3682 31.3399H50.1831ZM111.014 23.5091C110.345 23.5091 109.801 23.849 109.382 24.3965C109.041 24.8343 108.836 25.3217 108.774 26.0297H113.046C113.056 25.3217 112.927 24.8556 112.649 24.4142C112.293 23.8525 111.747 23.5091 111.014 23.5091ZM46.8983 20.4835H46.8625C46.7339 21.0735 46.5337 21.8594 46.2525 22.9132L45.1898 26.2657H48.6247L47.5476 22.9132C47.4308 22.5733 47.2128 21.6635 46.8983 20.4835ZM68.0856 23.7357C67.578 23.7357 67.1241 23.9009 66.7107 24.2325C66.2996 24.5688 66.022 25.0042 65.8945 25.5435C65.8314 25.7961 65.7945 26.0014 65.7945 26.1654V27.6865C65.7945 28.3521 66.0042 28.9149 66.4176 29.3728C66.8286 29.8259 67.3672 30.056 68.0224 30.056C68.7981 30.056 69.4009 29.7634 69.831 29.1722C70.2623 28.5822 70.4792 27.8057 70.4792 26.838C70.4792 25.9506 70.2754 25.2167 69.8716 24.6408C69.426 24.0413 68.8302 23.7357 68.0856 23.7357ZM95.4636 23.6082C94.6427 23.6082 94.016 23.9693 93.5883 24.6951C93.2178 25.2922 93.0355 26.0226 93.0355 26.8852C93.0355 27.7266 93.2178 28.4429 93.5883 29.0424C94.0268 29.7669 94.6475 30.128 95.4481 30.128C96.2273 30.128 96.8445 29.7622 97.2853 29.02C97.6678 28.4134 97.8584 27.6853 97.8584 26.851C97.8584 26.0144 97.6749 25.2934 97.3104 24.6962C96.8743 23.9693 96.2619 23.6082 95.4636 23.6082ZM57.9453 23.7357C57.4401 23.7357 56.9838 23.9009 56.5704 24.2325C56.1581 24.5688 55.8889 25.0042 55.7614 25.5435C55.6994 25.7961 55.6661 26.0014 55.6661 26.1654V27.6865C55.6661 28.3521 55.8698 28.9149 56.2832 29.3728C56.6943 29.8259 57.2304 30.056 57.8869 30.056C58.6578 30.056 59.263 29.7634 59.6931 29.1722C60.1232 28.5822 60.3365 27.8057 60.3365 26.838C60.3365 25.9506 60.1363 25.2167 59.7312 24.6408C59.2868 24.0413 58.6935 23.7357 57.9453 23.7357Z" fill="black"/>
<path d="M42.9102 9.41789C43.4153 9.33411 44.0599 9.28809 44.7426 9.28809C45.9209 9.28809 46.7347 9.52882 47.3149 10.0103C47.9225 10.5012 48.2966 11.2423 48.2966 12.3078C48.2966 13.4195 47.913 14.2526 47.3149 14.7907C46.6882 15.3559 45.6874 15.6427 44.4626 15.6427C43.7894 15.6427 43.2843 15.6061 42.9102 15.5589V9.41789ZM44.0611 14.7069C44.2195 14.7352 44.4638 14.7352 44.6973 14.7352C46.1938 14.7447 47.0826 13.9292 47.0826 12.3456C47.0921 10.9649 46.2879 10.1778 44.8474 10.1778C44.4829 10.1778 44.2207 10.2062 44.0623 10.2427V14.7069H44.0611Z" fill="black"/>
<path d="M53.5823 13.2786C53.5823 14.9366 52.404 15.6777 51.2447 15.6777C49.9544 15.6777 48.9631 14.7974 48.9631 13.353C48.9631 11.8708 49.9449 10.9634 51.3198 10.9634C52.6745 10.9634 53.5823 11.9086 53.5823 13.2786ZM50.1498 13.3258C50.1498 14.1967 50.5799 14.854 51.2817 14.854C51.9358 14.854 52.3945 14.2144 52.3945 13.307C52.3945 12.6025 52.0764 11.7977 51.2912 11.7977C50.4774 11.7977 50.1498 12.5753 50.1498 13.3258Z" fill="black"/>
<path d="M55.1422 11.0659L55.6188 13.1133C55.7212 13.5948 55.8249 14.0857 55.9083 14.5766H55.9274C56.0215 14.0857 56.1704 13.5853 56.3015 13.1227L56.89 11.0671H57.8253L58.396 13.0673C58.5366 13.5948 58.6581 14.0857 58.7606 14.5766H58.7797C58.8547 14.0857 58.9572 13.5948 59.0787 13.0673L59.5839 11.0671H60.7157L59.2848 15.5784H58.2185L57.6764 13.7446C57.5358 13.2726 57.4333 12.8466 57.3309 12.2991H57.3118C57.2189 12.8549 57.0962 13.2998 56.9663 13.7446L56.3861 15.5784H55.3102L53.9639 11.0671H55.1422V11.0659Z" fill="black"/>
<path d="M61.458 12.4092C61.458 11.89 61.4484 11.4557 61.421 11.0663H62.4314L62.4874 11.7425H62.5159C62.7125 11.3908 63.2082 10.9648 63.9659 10.9648C64.7606 10.9648 65.5839 11.4746 65.5839 12.9001V15.5765H64.4342V13.0299C64.4342 12.3821 64.1911 11.8912 63.5644 11.8912C63.1057 11.8912 62.7888 12.2157 62.6661 12.5579C62.6291 12.6594 62.6196 12.7986 62.6196 12.9285V15.5777H61.4603V12.4092H61.458Z" fill="black"/>
<path d="M66.804 9H67.9632V15.5764H66.804V9Z" fill="black"/>
<path d="M73.5413 13.2786C73.5413 14.9366 72.363 15.6777 71.2037 15.6777C69.9134 15.6777 68.9221 14.7974 68.9221 13.353C68.9221 11.8708 69.9039 10.9634 71.2788 10.9634C72.6334 10.9634 73.5413 11.9086 73.5413 13.2786ZM70.1088 13.3258C70.1088 14.1967 70.5389 14.854 71.2407 14.854C71.8948 14.854 72.3534 14.2144 72.3534 13.307C72.3534 12.6025 72.0353 11.7977 71.2502 11.7977C70.4364 11.7977 70.1088 12.5753 70.1088 13.3258Z" fill="black"/>
<path d="M77.0478 15.5762L76.9727 15.0759H76.9441C76.6641 15.4275 76.1864 15.6777 75.5978 15.6777C74.6816 15.6777 74.1669 15.0204 74.1669 14.3348C74.1669 13.196 75.1867 12.6214 76.869 12.6308V12.5564C76.869 12.2603 76.7475 11.7694 75.9433 11.7694C75.4941 11.7694 75.0271 11.9086 74.7185 12.1033L74.4945 11.3622C74.8317 11.1581 75.4203 10.9634 76.1399 10.9634C77.5982 10.9634 78.02 11.8803 78.02 12.8621V14.4917C78.02 14.8989 78.039 15.2977 78.0855 15.575H77.0478V15.5762ZM76.8976 13.3719C76.0839 13.353 75.3083 13.5288 75.3083 14.2144C75.3083 14.6593 75.5978 14.8623 75.9624 14.8623C76.4211 14.8623 76.7571 14.5661 76.8607 14.2416C76.8893 14.1578 76.8976 14.0657 76.8976 13.9914V13.3719Z" fill="black"/>
<path d="M83.4382 9V14.3079C83.4382 14.7705 83.4572 15.2708 83.4751 15.5764H82.4469L82.4004 14.8637H82.3813C82.1097 15.364 81.5581 15.6791 80.8944 15.6791C79.8102 15.6791 78.9488 14.7622 78.9488 13.3733C78.9393 11.864 79.8936 10.9648 80.9874 10.9648C81.6141 10.9648 82.0632 11.2244 82.2682 11.5572H82.2872V9H83.4382ZM82.2872 12.9461C82.2872 12.8541 82.2777 12.7419 82.2586 12.6499C82.1562 12.205 81.7916 11.8439 81.2674 11.8439C80.5287 11.8439 80.1176 12.4918 80.1176 13.3355C80.1176 14.1604 80.5287 14.7622 81.259 14.7622C81.7261 14.7622 82.1383 14.4471 82.2503 13.9562C82.2789 13.8547 82.2872 13.7426 82.2872 13.6223V12.9461Z" fill="black"/>
<path d="M90.9359 13.2786C90.9359 14.9366 89.7575 15.6777 88.5983 15.6777C87.3079 15.6777 86.3167 14.7974 86.3167 13.353C86.3167 11.8708 87.2984 10.9634 88.6733 10.9634C90.0292 10.9634 90.9359 11.9086 90.9359 13.2786ZM87.5045 13.3258C87.5045 14.1967 87.9346 14.854 88.6364 14.854C89.2905 14.854 89.7492 14.2144 89.7492 13.307C89.7492 12.6025 89.4311 11.7977 88.6459 11.7977C87.831 11.7977 87.5045 12.5753 87.5045 13.3258Z" fill="black"/>
<path d="M91.8779 12.4092C91.8779 11.89 91.8683 11.4557 91.8409 11.0663H92.8513L92.9073 11.7425H92.9359C93.1325 11.3908 93.6281 10.9648 94.3858 10.9648C95.1805 10.9648 96.0038 11.4746 96.0038 12.9001V15.5765H94.8541V13.0299C94.8541 12.3821 94.611 11.8912 93.9843 11.8912C93.5256 11.8912 93.2087 12.2157 93.086 12.5579C93.0491 12.6594 93.0395 12.7986 93.0395 12.9285V15.5777H91.8803V12.4092H91.8779Z" fill="black"/>
<path d="M100.486 9.77686V11.0643H101.58V11.9163H100.486V13.9082C100.486 14.4546 100.636 14.7413 101.076 14.7413C101.272 14.7413 101.421 14.713 101.525 14.6859L101.544 15.5568C101.376 15.6217 101.077 15.6677 100.711 15.6677C100.29 15.6677 99.9354 15.5284 99.7197 15.2971C99.4767 15.0375 99.3647 14.6304 99.3647 14.038V11.9175H98.7106V11.0655H99.3647V10.0471L100.486 9.77686Z" fill="black"/>
<path d="M102.443 9H103.603V11.6858H103.622C103.762 11.4722 103.949 11.2964 104.192 11.1666C104.416 11.0368 104.688 10.9624 104.978 10.9624C105.753 10.9624 106.567 11.4722 106.567 12.9166V15.5752H105.417V13.0464C105.417 12.3891 105.174 11.8982 104.538 11.8982C104.089 11.8982 103.771 12.1944 103.649 12.5378C103.612 12.631 103.603 12.7514 103.603 12.88V15.5752H102.443V9Z" fill="black"/>
<path d="M108.608 13.6409C108.637 14.4563 109.281 14.808 110.01 14.808C110.543 14.808 110.927 14.7336 111.273 14.6038L111.441 15.3909C111.048 15.5479 110.506 15.6682 109.852 15.6682C108.375 15.6682 107.505 14.7702 107.505 13.3896C107.505 12.1387 108.272 10.9634 109.73 10.9634C111.208 10.9634 111.694 12.167 111.694 13.1583C111.694 13.3719 111.675 13.5383 111.657 13.6397H108.608V13.6409ZM110.61 12.8444C110.619 12.4278 110.432 11.7422 109.665 11.7422C108.954 11.7422 108.655 12.3818 108.608 12.8444H110.61Z" fill="black"/>
</svg>
