<svg width="142" height="44" viewBox="0 0 142 44" fill="none" xmlns="http://www.w3.org/2000/svg">
<rect x="0.5" y="0.5" width="141" height="43" rx="11.5" fill="white"/>
<rect x="0.5" y="0.5" width="141" height="43" rx="11.5" stroke="#E0E0E0"/>
<path d="M53.1384 28.1131H48.9013L47.8672 30.7846H46L50.1509 20.79H51.9175L56.169 30.7846H54.2156L53.1384 28.1131ZM49.4327 26.7569H52.5926L51.4579 23.8955C51.2999 23.5023 51.1419 23.0683 50.9983 22.5801C50.8547 23.0005 50.711 23.4345 50.553 23.882L49.4327 26.7569Z" fill="black"/>
<path d="M57.0017 25.1701C57.0017 24.6141 56.9873 24.0174 56.9442 23.3529H58.639C58.6965 23.6648 58.7396 23.9767 58.7683 24.3022C59.4721 23.5834 60.2764 23.2173 61.1813 23.2173C61.7127 23.2173 62.201 23.3393 62.6463 23.597C63.0915 23.8411 63.4506 24.2479 63.7379 24.7904C64.0108 25.3328 64.1544 26.0244 64.1544 26.8517C64.1544 27.7196 63.9964 28.4655 63.6804 29.0757C63.3644 29.686 62.9336 30.1606 62.359 30.4725C61.7989 30.7844 61.1382 30.9471 60.4057 30.9471C59.8743 30.9471 59.3428 30.8658 58.8258 30.6895V33.7543L57.016 33.9035V25.1701H57.0017ZM61.7414 28.9808C62.1149 28.5197 62.2872 27.8281 62.2872 26.933C62.2872 26.1058 62.1292 25.4956 61.8276 25.1158C61.526 24.7361 61.1238 24.5598 60.6068 24.5598C60.262 24.5598 59.9317 24.6412 59.6301 24.7904C59.3285 24.9531 59.0556 25.1565 58.7827 25.4142V29.4012C58.9694 29.4825 59.1705 29.5503 59.4146 29.6046C59.6588 29.6588 59.8886 29.6724 60.1184 29.6724C60.8366 29.6724 61.3824 29.4419 61.7414 28.9808Z" fill="black"/>
<path d="M65.2904 25.1701C65.2904 24.6141 65.276 24.0174 65.2329 23.3529H66.9277C66.9852 23.6648 67.0283 23.9767 67.057 24.3022C67.7608 23.5834 68.5651 23.2173 69.47 23.2173C70.0014 23.2173 70.4897 23.3393 70.935 23.597C71.3802 23.8411 71.7393 24.2479 72.0266 24.7904C72.2995 25.3328 72.4431 26.0244 72.4431 26.8517C72.4431 27.7196 72.2851 28.4655 71.9691 29.0757C71.6531 29.686 71.2222 30.1606 70.6477 30.4725C70.0876 30.7844 69.4269 30.9471 68.6944 30.9471C68.1629 30.9471 67.6315 30.8658 67.1145 30.6895V33.7543L65.3047 33.9035V25.1701H65.2904ZM70.0445 28.9808C70.4179 28.5197 70.5903 27.8281 70.5903 26.933C70.5903 26.1058 70.4323 25.4956 70.1307 25.1158C69.829 24.7361 69.4269 24.5598 68.9098 24.5598C68.5651 24.5598 68.2348 24.6412 67.9331 24.7904C67.6315 24.9531 67.3586 25.1565 67.0857 25.4142V29.4012C67.2724 29.4825 67.4735 29.5503 67.7177 29.6046C67.9619 29.6588 68.1917 29.6724 68.4215 29.6724C69.1396 29.6724 69.6711 29.4419 70.0445 28.9808Z" fill="black"/>
<path d="M75.8297 30.324C75.0541 29.9172 74.4508 29.334 74.0343 28.5746C73.6178 27.8152 73.4023 26.9202 73.4023 25.8895C73.4023 24.7639 73.6465 23.8146 74.1205 23.0281C74.6088 22.2416 75.2552 21.6584 76.0882 21.2651C76.9213 20.8719 77.8549 20.6685 78.889 20.6685C79.4922 20.6685 80.0811 20.7363 80.6269 20.8583C81.187 20.9804 81.6898 21.1567 82.1781 21.3736L81.7185 22.6891C80.7562 22.2551 79.8369 22.0381 78.9752 22.0381C78.2426 22.0381 77.5963 22.1873 77.0362 22.4857C76.476 22.784 76.0595 23.218 75.7435 23.7875C75.4419 24.3571 75.2839 25.0623 75.2839 25.8759C75.2839 26.5947 75.3988 27.2185 75.643 27.7745C75.8871 28.3305 76.2462 28.7645 76.7633 29.0899C77.266 29.4154 77.9123 29.5781 78.6879 29.5781C79.0326 29.5781 79.3917 29.551 79.7364 29.4968C80.0811 29.4425 80.4115 29.3612 80.7274 29.2527V27.2321H78.2857V25.8895H82.4941V30.0935C81.8908 30.3647 81.2589 30.5681 80.5838 30.7037C79.9231 30.8529 79.2624 30.9207 78.6017 30.9207C77.5389 30.9343 76.6196 30.7308 75.8297 30.324Z" fill="black"/>
<path d="M88.9887 30.7978C88.9313 30.513 88.8882 30.1739 88.8595 29.8078C88.5866 30.1197 88.2131 30.3909 87.7679 30.6079C87.3226 30.8249 86.8199 30.9334 86.2598 30.9334C85.8002 30.9334 85.398 30.852 85.0246 30.6757C84.6511 30.513 84.3495 30.2553 84.1341 29.9163C83.9186 29.5772 83.8037 29.1704 83.8037 28.6822C83.8037 27.9635 84.0766 27.3803 84.6368 26.9599C85.1826 26.526 86.1018 26.309 87.3944 26.309C87.8828 26.309 88.3568 26.3361 88.8307 26.4039V26.2548C88.8307 25.5903 88.6871 25.1292 88.3855 24.858C88.0839 24.5867 87.6673 24.4511 87.1072 24.4511C86.7194 24.4511 86.3172 24.5054 85.872 24.6139C85.4267 24.7224 85.0533 24.8444 84.7229 24.9936L84.4357 23.7459C84.7517 23.6103 85.1826 23.4747 85.714 23.3662C86.2454 23.2577 86.7912 23.1899 87.3801 23.1899C88.0551 23.1899 88.644 23.2849 89.118 23.4883C89.592 23.6781 89.9654 24.0172 90.2383 24.4918C90.5112 24.9665 90.6405 25.6038 90.6405 26.4175V29.3738C90.6405 29.6857 90.6548 30.1468 90.6979 30.7706H88.9887V30.7978ZM87.9115 29.4145C88.2849 29.2382 88.6009 29.0348 88.8307 28.7771V27.3939C88.3424 27.3397 87.9402 27.3125 87.6242 27.3125C86.8774 27.3125 86.3603 27.421 86.0731 27.6516C85.7858 27.8821 85.6422 28.1804 85.6422 28.5737C85.6422 28.9399 85.7427 29.2111 85.9582 29.3874C86.1592 29.5637 86.4465 29.6586 86.8056 29.6586C87.1646 29.6722 87.5381 29.5772 87.9115 29.4145Z" fill="black"/>
<path d="M92.2069 29.0081V20.2069L94.0023 20.0713V28.7097C94.0023 29.0217 94.0597 29.2522 94.1746 29.3878C94.2895 29.5234 94.4763 29.5912 94.7204 29.5912C94.8353 29.5912 94.9933 29.5641 95.1944 29.5099L95.4098 30.7304C95.2375 30.7982 95.0364 30.8524 94.7779 30.8795C94.5337 30.9202 94.3039 30.9338 94.0741 30.9338C92.8389 30.9338 92.2069 30.2964 92.2069 29.0081Z" fill="black"/>
<path d="M96.6987 29.0081V20.2069L98.4941 20.0713V28.7097C98.4941 29.0217 98.5515 29.2522 98.6665 29.3878C98.7814 29.5234 98.9681 29.5912 99.2122 29.5912C99.3271 29.5912 99.4851 29.5641 99.6862 29.5099L99.9017 30.7304C99.7293 30.7982 99.5282 30.8524 99.2697 30.8795C99.0255 30.9202 98.7957 30.9338 98.5659 30.9338C97.3307 30.9338 96.6987 30.2964 96.6987 29.0081Z" fill="black"/>
<path d="M107.389 27.285H102.233C102.319 28.8446 103.109 29.6176 104.589 29.6176C104.962 29.6176 105.335 29.5769 105.723 29.4955C106.111 29.4141 106.484 29.2921 106.844 29.1565L107.231 30.3227C106.355 30.7296 105.364 30.933 104.258 30.933C103.425 30.933 102.707 30.7838 102.132 30.4855C101.558 30.1871 101.127 29.7532 100.84 29.1972C100.553 28.6411 100.409 27.9631 100.409 27.163C100.409 26.3358 100.567 25.6306 100.869 25.0339C101.17 24.4372 101.601 23.9897 102.147 23.6778C102.693 23.3659 103.325 23.2031 104.043 23.2031C104.79 23.2031 105.407 23.3659 105.91 23.6913C106.413 24.0168 106.786 24.4643 107.016 25.0068C107.26 25.5492 107.375 26.1595 107.375 26.824V27.285H107.389ZM105.623 26.2001C105.594 25.6035 105.436 25.1559 105.149 24.8711C104.861 24.5728 104.488 24.4236 104.014 24.4236C103.554 24.4236 103.181 24.5728 102.865 24.8711C102.563 25.1695 102.362 25.617 102.276 26.2001H105.623Z" fill="black"/>
<path d="M108.837 25.2243C108.837 24.8175 108.823 24.1937 108.779 23.3529H110.474C110.503 23.5563 110.532 23.814 110.56 24.0988C110.589 24.3835 110.604 24.6141 110.618 24.8039C110.833 24.4785 111.034 24.2072 111.235 23.9767C111.437 23.7462 111.681 23.5699 111.939 23.4343C112.212 23.2987 112.514 23.2173 112.858 23.2173C113.131 23.2173 113.376 23.2444 113.577 23.2987L113.347 24.7768C113.174 24.7226 112.973 24.6955 112.758 24.6955C112.327 24.6955 111.968 24.8039 111.652 25.0074C111.336 25.2108 110.991 25.5498 110.632 26.0244V30.8115H108.837V25.2243Z" fill="black"/>
<path d="M114.655 33.8357C114.396 33.795 114.181 33.7408 114.009 33.6865L114.339 32.4389C114.454 32.466 114.612 32.5067 114.799 32.5338C114.985 32.5609 115.158 32.5745 115.33 32.5745C116.134 32.5745 116.723 32.0863 117.125 31.1235L117.24 30.8522L114.339 23.3394H116.278L117.743 27.5298C117.987 28.2485 118.131 28.7909 118.203 29.1842C118.346 28.6418 118.504 28.1129 118.691 27.5704L120.17 23.3394H121.994L119.093 30.8794C118.82 31.5981 118.519 32.1677 118.203 32.6016C117.887 33.0356 117.513 33.361 117.082 33.578C116.651 33.795 116.134 33.8899 115.517 33.8899C115.201 33.9035 114.928 33.8899 114.655 33.8357Z" fill="black"/>
<path d="M47.7031 11.0688H50.9635L50.8773 11.8147H48.6654V13.2522H50.7481V13.9438H48.6654V15.5305H50.9922L50.9061 16.2763H47.7031V11.0688Z" fill="black"/>
<path d="M53.2056 13.631L51.482 11.0815H52.5593L53.7227 12.953L54.9435 11.0815H55.992L54.2828 13.6039L56.1213 16.3026H55.0153L53.6939 14.2549L52.3582 16.3026H51.3528L53.2056 13.631Z" fill="black"/>
<path d="M56.8536 11.0688H58.3474C59.0512 11.0688 59.5826 11.2045 59.956 11.4757C60.3295 11.7469 60.5162 12.1402 60.5162 12.6419C60.5162 12.9945 60.43 13.2929 60.272 13.5505C60.0997 13.8082 59.8699 14.0116 59.5682 14.1472C59.2666 14.2828 58.9219 14.3506 58.5485 14.3506C58.333 14.3506 58.0889 14.3235 57.8303 14.2828V16.2899H56.8824V11.0688H56.8536ZM59.2522 13.4014C59.4533 13.2251 59.5539 12.981 59.5539 12.6691C59.5539 12.3436 59.4533 12.1131 59.2379 11.9774C59.0368 11.8418 58.7208 11.7605 58.3187 11.7605H57.816V13.6183C58.0601 13.659 58.2325 13.6726 58.3617 13.6726C58.7495 13.659 59.0512 13.5777 59.2522 13.4014Z" fill="black"/>
<path d="M61.4497 11.0688H62.3976V15.5169H64.6813L64.5951 16.2899H61.4353V11.0688H61.4497Z" fill="black"/>
<path d="M66.1465 16.0312C65.7444 15.8142 65.4284 15.5023 65.213 15.109C64.9975 14.7158 64.897 14.2547 64.897 13.7258C64.897 13.1698 65.0119 12.6951 65.2417 12.2883C65.4715 11.8815 65.8018 11.556 66.2327 11.339C66.6636 11.1085 67.1663 11 67.7552 11C68.3154 11 68.7893 11.1085 69.1915 11.3255C69.5937 11.5424 69.8953 11.8544 70.1107 12.2476C70.3262 12.6409 70.4267 13.102 70.4267 13.6173C70.4267 14.1733 70.3118 14.6615 70.082 15.0819C69.8522 15.4887 69.5218 15.8142 69.0909 16.0312C68.6601 16.2482 68.1574 16.3702 67.5828 16.3702C67.0227 16.3567 66.5487 16.2482 66.1465 16.0312ZM68.617 15.3938C68.8899 15.2311 69.0909 14.987 69.2202 14.6886C69.3495 14.3903 69.4213 14.0513 69.4213 13.6715C69.4213 13.2918 69.3638 12.9664 69.2489 12.668C69.134 12.3697 68.9473 12.1391 68.6888 11.9628C68.4303 11.7865 68.0999 11.7052 67.6977 11.7052C67.3099 11.7052 66.9796 11.8001 66.7067 11.9764C66.4338 12.1527 66.2327 12.3832 66.1035 12.6816C65.9742 12.9799 65.9024 13.3054 65.9024 13.658C65.9024 14.0377 65.9598 14.3767 66.0891 14.6751C66.2184 14.9734 66.4051 15.204 66.678 15.3803C66.9365 15.5565 67.2669 15.6379 67.6547 15.6379C68.0281 15.6515 68.3441 15.5565 68.617 15.3938Z" fill="black"/>
<path d="M71.472 11.0688H73.1956C73.8276 11.0688 74.3015 11.1909 74.6319 11.4214C74.9622 11.6655 75.1202 12.0046 75.1202 12.4385C75.1202 12.7097 75.0628 12.9538 74.9479 13.1708C74.833 13.3878 74.6893 13.5505 74.517 13.6862C74.3446 13.8218 74.1723 13.9167 73.9856 13.9845L75.6804 16.2899H74.5744L73.1381 14.215H72.4344V16.2899H71.4864V11.0688H71.472ZM72.9658 13.537C73.1956 13.537 73.3967 13.4963 73.5834 13.4149C73.7557 13.3336 73.8994 13.2115 73.9999 13.0488C74.1005 12.8996 74.1436 12.7097 74.1436 12.5063C74.1436 12.2487 74.0574 12.0588 73.885 11.9368C73.7127 11.8147 73.4541 11.7605 73.1238 11.7605H72.4344V13.5505H72.9658V13.537Z" fill="black"/>
<path d="M76.4299 11.0688H79.6903L79.6041 11.8147H77.3922V13.2522H79.4749V13.9438H77.3922V15.5305H79.719L79.6329 16.2763H76.4299V11.0688Z" fill="black"/>
<path d="M83.2388 11.0688H84.1867V16.2899H83.2388V11.0688Z" fill="black"/>
<path d="M86.7108 11.8283H85.0016L85.0878 11.0688H89.3823L89.2961 11.8283H87.6731V16.2899H86.7251V11.8283H86.7108Z" fill="black"/>
<path d="M93.5211 16.0312C93.1189 15.8142 92.8029 15.5023 92.5875 15.109C92.372 14.7158 92.2715 14.2547 92.2715 13.7258C92.2715 13.1698 92.3864 12.6951 92.6162 12.2883C92.846 11.8815 93.1763 11.556 93.6072 11.339C94.0381 11.1085 94.5408 11 95.1297 11C95.6899 11 96.1638 11.1085 96.566 11.3255C96.9682 11.5424 97.2698 11.8544 97.4852 12.2476C97.7007 12.6409 97.8012 13.102 97.8012 13.6173C97.8012 14.1733 97.6863 14.6615 97.4565 15.0819C97.2267 15.4887 96.8963 15.8142 96.4655 16.0312C96.0346 16.2482 95.5319 16.3702 94.9573 16.3702C94.4116 16.3567 93.9232 16.2482 93.5211 16.0312ZM95.9915 15.3938C96.2644 15.2311 96.4655 14.987 96.5947 14.6886C96.724 14.3903 96.7958 14.0513 96.7958 13.6715C96.7958 13.2918 96.7384 12.9664 96.6234 12.668C96.5085 12.3697 96.3218 12.1391 96.0633 11.9628C95.8048 11.7865 95.4744 11.7052 95.0723 11.7052C94.6845 11.7052 94.3541 11.8001 94.0812 11.9764C93.8083 12.1527 93.6072 12.3832 93.478 12.6816C93.3487 12.9799 93.2769 13.3054 93.2769 13.658C93.2769 14.0377 93.3343 14.3767 93.4636 14.6751C93.5929 14.9734 93.7796 15.204 94.0525 15.3803C94.311 15.5565 94.6414 15.6379 95.0292 15.6379C95.4026 15.6515 95.7329 15.5565 95.9915 15.3938Z" fill="black"/>
<path d="M98.8466 11.0688H99.9381L102.667 15.1101C102.638 14.7304 102.638 14.3778 102.638 14.0523V11.0688H103.529V16.2899H102.466L99.694 12.1809C99.7227 12.6419 99.7371 13.0623 99.7371 13.4149V16.2899H98.8466V11.0688Z" fill="black"/>
<path fill-rule="evenodd" clip-rule="evenodd" d="M30 10H18C14 10 12 12 12 16.0717V28C12 32 14 34 18 34H30C34 34 36 32 36 28V16C36 12 34 10 30 10Z" fill="black"/>
<path d="M16.6283 22.6545H17.282V25.6974H16.6283V24.463H15.1537V25.6974H14.5V22.6545H15.1537V23.8889H16.6283V22.6545ZM20.3072 24.3912C20.3072 24.8793 20.0487 25.152 19.5775 25.152C19.1062 25.152 18.8326 24.8793 18.8326 24.3769V22.6545H18.1789V24.3912C18.1789 25.2524 18.6805 25.7405 19.5623 25.7405C20.444 25.7405 20.9608 25.2381 20.9608 24.3625V22.6401H20.3072V24.3912ZM27.8777 24.7501L27.148 22.6545H26.616L25.8863 24.7501L25.1718 22.6545H24.4725L25.5974 25.6974H26.1447L26.8744 23.7023L27.6041 25.6974H28.1514L29.2763 22.6545H28.5922L27.8777 24.7501ZM30.4317 24.3912H31.6174V23.8315H30.4317V23.2143H32.1647V22.6545H29.7932V25.6974H32.2255V25.1376H30.4317V24.3912ZM33.016 25.6974H33.6545V22.6545H33.016V25.6974ZM22.253 25.0659L21.9642 25.6974H21.2953L22.7091 22.6545H23.2867L24.7005 25.6974H24.0164L23.7276 25.0659H22.253ZM22.4962 24.5061H23.4844L22.9827 23.4152L22.4962 24.5061Z" fill="white"/>
<path d="M24.1044 18.7802C21.8393 18.7802 19.9999 17.0434 19.9999 14.9048H20.5776C20.5776 16.742 22.1586 18.2348 24.1044 18.2348C26.0503 18.2348 27.6313 16.742 27.6313 14.9048H28.2089C28.2089 17.0291 26.3695 18.7802 24.1044 18.7802Z" fill="white"/>
</svg>
