<svg width="142" height="44" viewBox="0 0 142 44" fill="none" xmlns="http://www.w3.org/2000/svg">
<rect x="0.5" y="0.5" width="141" height="43" rx="11.5" fill="white"/>
<rect x="0.5" y="0.5" width="141" height="43" rx="11.5" stroke="#E0E0E0"/>
<path d="M60.827 23.5296C58.4258 23.5296 56.5254 25.2639 56.5254 27.6731C56.5254 29.986 58.4258 31.8165 60.827 31.8165C63.2282 31.8165 65.1287 30.0822 65.1287 27.6731C65.1274 25.1677 63.2269 23.5296 60.827 23.5296ZM60.827 30.0809C59.5272 30.0809 58.4258 29.0213 58.4258 27.5756C58.4258 26.1299 59.5259 25.0703 60.827 25.0703C62.1281 25.0703 63.2282 26.0337 63.2282 27.5756C63.2269 29.0213 62.1269 30.0809 60.827 30.0809ZM51.5232 23.5296C49.122 23.5296 47.2215 25.2639 47.2215 27.6731C47.2215 29.986 49.122 31.8165 51.5232 31.8165C53.9244 31.8165 55.8248 30.0822 55.8248 27.6731C55.8248 25.1677 53.9244 23.5296 51.5232 23.5296ZM51.5232 30.0809C50.2233 30.0809 49.122 29.0213 49.122 27.5756C49.122 26.1299 50.2221 25.0703 51.5232 25.0703C52.8243 25.0703 53.9244 26.0337 53.9244 27.5756C53.9244 29.0213 52.8243 30.0809 51.5232 30.0809ZM40.42 24.7816V26.516H44.7217C44.6218 27.4794 44.221 28.2504 43.7215 28.7314C43.1209 29.31 42.1207 29.9835 40.42 29.9835C37.7192 29.9835 35.7188 27.9605 35.7188 25.3589C35.7188 22.7574 37.8191 20.7344 40.42 20.7344C41.8211 20.7344 42.9211 21.3129 43.7215 21.9864L45.0214 20.7344C43.9213 19.771 42.5203 19 40.5199 19C36.9188 19 33.8184 21.8902 33.8184 25.3589C33.8184 28.8277 36.9201 31.7191 40.5212 31.7191C42.5216 31.7191 43.9226 31.1406 45.1226 29.8885C46.3225 28.7327 46.7233 27.0945 46.7233 25.8412C46.7233 25.4564 46.7233 25.0703 46.6235 24.7816H40.42ZM85.834 26.1311C85.4345 25.1677 84.433 23.5296 82.2329 23.5296C80.0327 23.5296 78.2322 25.1677 78.2322 27.6731C78.2322 29.986 80.0327 31.8165 82.4339 31.8165C84.3344 31.8165 85.5344 30.6607 85.9352 29.986L84.5342 29.0226C84.0335 29.6973 83.4341 30.1784 82.4339 30.1784C81.4338 30.1784 80.8331 29.7935 80.3337 28.9263L86.0338 26.6122L85.834 26.1311ZM80.0315 27.4794C80.0315 25.9375 81.3313 25.0703 82.2316 25.0703C82.9321 25.0703 83.6326 25.4551 83.8324 25.9375L80.0315 27.4794ZM75.3302 31.4304H77.2307V19.3861H75.3302V31.4304ZM72.3297 24.3968C71.829 23.9144 71.0299 23.4334 70.0297 23.4334C67.9294 23.4334 65.9291 25.2639 65.9291 27.5768C65.9291 29.8897 67.8295 31.6241 70.0297 31.6241C71.0299 31.6241 71.8303 31.1418 72.2298 30.6607H72.3297V31.2392C72.3297 32.7812 71.4294 33.6484 70.0297 33.6484C68.9296 33.6484 68.1292 32.8774 67.9294 32.2026L66.3286 32.8774C66.8294 33.937 68.0293 35.2865 70.1296 35.2865C72.3297 35.2865 74.1303 34.0345 74.1303 31.0468V23.7245H72.3297V24.3968ZM70.1296 30.0809C68.8297 30.0809 67.7284 29.0213 67.7284 27.5756C67.7284 26.1299 68.8284 25.0703 70.1296 25.0703C71.4307 25.0703 72.4296 26.1299 72.4296 27.5756C72.4296 29.0213 71.4294 30.0809 70.1296 30.0809ZM94.536 19.3861H90.0345V31.4304H91.935V26.9021H94.536C96.6362 26.9021 98.6366 25.4564 98.6366 23.1447C98.6366 20.833 96.6362 19.3861 94.536 19.3861ZM94.6359 25.1677H91.935V21.0242H94.6359C96.0369 21.0242 96.836 22.1801 96.836 23.0473C96.7361 24.1081 95.937 25.1677 94.6359 25.1677ZM106.14 23.4334C104.739 23.4334 103.339 24.0119 102.838 25.2639L104.539 25.9387C104.939 25.2639 105.539 25.0715 106.24 25.0715C107.24 25.0715 108.14 25.65 108.24 26.6134V26.7097C107.94 26.5172 107.14 26.2273 106.34 26.2273C104.539 26.2273 102.738 27.1907 102.738 28.9251C102.738 30.5633 104.239 31.6229 105.839 31.6229C107.139 31.6229 107.739 31.0443 108.24 30.467H108.34V31.4304H110.141V26.8059C109.941 24.6854 108.24 23.4334 106.14 23.4334ZM105.939 30.0809C105.338 30.0809 104.438 29.7923 104.438 29.0213C104.438 28.0579 105.538 27.7693 106.438 27.7693C107.239 27.7693 107.638 27.9617 108.139 28.1541C107.94 29.31 106.939 30.0809 105.939 30.0809ZM116.443 23.722L114.342 28.9251H114.242L112.042 23.722H110.042L113.343 31.0443L111.443 35.0916H113.343L118.445 23.722H116.443ZM99.638 31.4304H101.539V19.3861H99.638V31.4304Z" fill="black"/>
<path d="M37.0861 12.7146H40.0026C40.0194 12.7781 40.0326 12.8566 40.0446 12.9466C40.0554 13.0378 40.0614 13.1278 40.0614 13.219C40.0614 13.5872 40.0026 13.9334 39.8864 14.2589C39.7702 14.5844 39.5869 14.8753 39.3376 15.1315C39.0716 15.4039 38.7529 15.6139 38.3826 15.764C38.0112 15.9129 37.5882 15.9879 37.1113 15.9879C36.6787 15.9879 36.2725 15.9129 35.8903 15.764C35.508 15.6151 35.1761 15.4062 34.8933 15.1396C34.6106 14.8729 34.3865 14.5567 34.2199 14.1908C34.0534 13.825 33.9707 13.4268 33.9707 12.9939C33.9707 12.5611 34.0534 12.1629 34.2199 11.7971C34.3865 11.4312 34.6106 11.1161 34.8933 10.8483C35.1761 10.5817 35.508 10.374 35.8903 10.2239C36.2725 10.075 36.6799 10 37.1113 10C37.593 10 38.0232 10.0796 38.403 10.2401C38.7828 10.4005 39.1076 10.6221 39.3796 10.9037L38.6067 11.632C38.4126 11.4346 38.1969 11.2834 37.9584 11.1796C37.72 11.0757 37.4348 11.0238 37.1029 11.0238C36.8309 11.0238 36.5745 11.0711 36.33 11.1634C36.0868 11.2569 35.8735 11.3885 35.6902 11.5593C35.5068 11.7301 35.3619 11.9367 35.254 12.1791C35.1462 12.4215 35.0923 12.6927 35.0923 12.9916C35.0923 13.2906 35.1462 13.5606 35.254 13.8042C35.3619 14.0466 35.5092 14.2532 35.6938 14.424C35.8795 14.5948 36.094 14.7264 36.3372 14.8199C36.5805 14.9133 36.8417 14.9595 37.1185 14.9595C37.4336 14.9595 37.7008 14.9157 37.9201 14.8279C38.1394 14.7402 38.3263 14.6271 38.4809 14.4874C38.5911 14.3917 38.687 14.2705 38.7673 14.1239C38.8475 13.9773 38.9099 13.8134 38.9542 13.6322H37.0849V12.7146H37.0861Z" fill="black"/>
<path d="M42.1144 11.1538V12.4823H44.4989V13.5072H42.1144V14.8357H44.7649V15.8594H40.9928V10.1289H44.7649V11.1527H42.1144V11.1538Z" fill="black"/>
<path d="M47.056 15.8587V11.1532H45.394V10.1294H49.8383V11.1532H48.1764V15.8587H47.056Z" fill="black"/>
<path d="M52.467 10.1289H53.5886V15.8583H52.467V10.1289Z" fill="black"/>
<path d="M56.0433 15.8587V11.1532H54.3813V10.1294H58.8256V11.1532H57.1649V15.8587H56.0433Z" fill="black"/>
<path d="M64.1034 15.9885C63.66 15.9885 63.249 15.9112 62.8692 15.7565C62.4893 15.6019 62.161 15.3895 61.8842 15.1206C61.6074 14.8516 61.3905 14.5342 61.2324 14.1684C61.0742 13.8025 60.9951 13.4124 60.9951 12.9957C60.9951 12.5791 61.0742 12.1889 61.2324 11.8231C61.3905 11.4572 61.6074 11.1398 61.8842 10.8709C62.161 10.6019 62.4893 10.3896 62.8692 10.2349C63.249 10.0803 63.66 10.0029 64.1034 10.0029C64.5467 10.0029 64.9577 10.0803 65.3376 10.2349C65.7174 10.3896 66.0445 10.6019 66.3225 10.8709C66.5993 11.1398 66.8174 11.4583 66.9744 11.8231C67.1325 12.1889 67.2116 12.5791 67.2116 12.9957C67.2116 13.4124 67.1325 13.8025 66.9744 14.1684C66.8162 14.5342 66.5993 14.8516 66.3225 15.1206C66.0457 15.3895 65.7174 15.6019 65.3376 15.7565C64.9577 15.91 64.5467 15.9885 64.1034 15.9885ZM64.1034 14.9636C64.3802 14.9636 64.639 14.9151 64.8798 14.8193C65.1207 14.7235 65.3316 14.5896 65.5113 14.4188C65.691 14.248 65.8324 14.0414 65.9355 13.799C66.0373 13.5566 66.0889 13.2877 66.0889 12.9946C66.0889 12.7014 66.0373 12.4336 65.9355 12.1901C65.8324 11.9477 65.6922 11.7411 65.5113 11.5703C65.3316 11.3995 65.1207 11.2668 64.8798 11.1698C64.639 11.0729 64.3802 11.0255 64.1034 11.0255C63.8266 11.0255 63.5678 11.074 63.3269 11.1698C63.0861 11.2656 62.8752 11.3995 62.6954 11.5703C62.5157 11.7411 62.3743 11.9477 62.2713 12.1901C62.1682 12.4325 62.1179 12.7014 62.1179 12.9946C62.1179 13.2877 62.1694 13.5566 62.2713 13.799C62.3731 14.0414 62.5145 14.248 62.6954 14.4188C62.8752 14.5896 63.0861 14.7224 63.3269 14.8193C63.5678 14.9163 63.8266 14.9636 64.1034 14.9636Z" fill="black"/>
<path d="M68.1172 10.1289H69.4221L71.815 13.97H71.8809L71.815 12.8655V10.1289H72.9281V15.8583H71.7479L69.222 11.8013H69.1561L69.222 12.9059V15.8583H68.1172V10.1289Z" fill="black"/>
<path d="M13.3365 12.7627C13.1471 12.8267 13 12.9972 13 13.2173V29.0868C13 29.3052 13.1446 29.4741 13.3315 29.5397L22.0839 21.1492L13.3365 12.7627Z" fill="black"/>
<path d="M24.5506 18.785L13.7501 12.7994C13.6147 12.7242 13.4668 12.7186 13.3372 12.7626L22.0846 21.1491L24.5506 18.785Z" fill="black"/>
<path d="M13.7517 29.5031L24.5563 23.5151L22.0861 21.147L13.3337 29.5391C13.4642 29.5839 13.6146 29.5791 13.7517 29.5031Z" fill="black"/>
<path d="M24.5506 23.5161L28.0644 21.569C28.3984 21.3841 28.3984 20.9191 28.0644 20.7342L24.5465 18.7847L22.0804 21.1488L24.5506 23.5161Z" fill="black"/>
<path fill-rule="evenodd" clip-rule="evenodd" d="M13.7501 12.7994C13.6147 12.7242 13.4668 12.7186 13.3372 12.7626L22.0823 21.1469L22.0818 21.1473L13.3365 12.7628C13.183 12.8147 13.0573 12.9365 13.0151 13.098C13.0053 13.1358 13 13.1757 13 13.2174V29.0869C13 29.1304 13.0057 29.172 13.0164 29.2112C13.0593 29.3686 13.1818 29.4873 13.3315 29.5399L20.821 22.36L13.6197 29.2649L13.3337 29.5391C13.4642 29.5839 13.6146 29.5791 13.7517 29.5031L24.5563 23.5151L24.5548 23.5137L28.0644 21.5688C28.3984 21.384 28.3984 20.919 28.0644 20.7341L24.5494 18.7862L24.5506 18.785L13.7501 12.7994ZM22.0846 20.3481L16.4769 14.9717L23.5841 18.9105L22.0846 20.3481ZM13.5783 13.7957L21.2483 21.1493L13.5783 28.5023V13.7957ZM16.4641 27.3387L23.5898 23.3896L22.0862 21.9481L16.4641 27.3387ZM24.639 19.4969L27.6245 21.1515L24.6431 22.8037L22.9161 21.1486L24.639 19.4969Z" fill="white"/>
</svg>
